<?xml version="1.0" standalone="no"?>
<!DOCTYPE svg PUBLIC "-//W3C//DTD SVG 20010904//EN"
 "http://www.w3.org/TR/2001/REC-SVG-20010904/DTD/svg10.dtd">
<svg version="1.0" xmlns="http://www.w3.org/2000/svg"
 width="305.000000pt" height="305.000000pt" viewBox="0 0 305.000000 305.000000"
 preserveAspectRatio="xMidYMid meet">
<metadata>
Created by potrace 1.11, written by Peter Selinger 2001-2013
</metadata>
<g transform="translate(0.000000,305.000000) scale(0.100000,-0.100000)"
fill="#000000" stroke="none">
<path d="M3036 3013 c-6 -14 -5 -15 5 -6 7 7 10 15 7 18 -3 3 -9 -2 -12 -12z"/>
<path d="M2642 2930 c-6 -10 -8 -21 -3 -24 5 -3 11 4 14 16 8 29 4 32 -11 8z"/>
<path d="M1180 2880 c-9 -6 -10 -10 -3 -10 6 0 15 5 18 10 8 12 4 12 -15 0z"/>
<path d="M606 2867 c3 -10 9 -15 12 -12 3 3 0 11 -7 18 -10 9 -11 8 -5 -6z"/>
<path d="M2868 2833 c7 -3 16 -2 19 1 4 3 -2 6 -13 5 -11 0 -14 -3 -6 -6z"/>
<path d="M577 2823 c-4 -3 -7 -11 -7 -17 0 -6 5 -5 12 2 6 6 9 14 7 17 -3 3
-9 2 -12 -2z"/>
<path d="M1694 2754 c-18 -25 -21 -26 -81 -17 -34 5 -60 6 -57 1 10 -16 -56
-7 -88 12 -44 27 -83 25 -181 -6 -117 -38 -123 -41 -103 -63 15 -17 13 -21
-28 -59 -29 -27 -63 -46 -100 -57 -68 -20 -97 -43 -120 -93 -29 -65 -87 -82
-103 -29 -8 27 -13 32 -38 31 -53 -3 -119 -26 -140 -48 -11 -12 -32 -27 -47
-34 -20 -8 -29 -21 -34 -49 -4 -21 -20 -65 -36 -98 -34 -73 -37 -124 -8 -132
32 -8 23 -39 -25 -89 -51 -52 -63 -84 -47 -127 9 -23 8 -36 -4 -58 -21 -42
-32 -112 -22 -140 9 -22 -6 -116 -32 -201 -5 -18 -4 -29 4 -32 6 -3 -11 -5
-39 -4 -47 2 -50 0 -47 -22 1 -13 -3 -27 -10 -32 -10 -6 -9 -8 3 -8 11 0 21
-17 30 -51 14 -49 16 -51 77 -78 88 -39 116 -62 108 -86 -8 -28 -40 -45 -96
-52 -27 -3 -51 -12 -54 -19 -3 -8 -1 -13 5 -11 5 1 29 -25 52 -58 41 -57 45
-60 112 -78 79 -21 95 -31 95 -62 0 -27 -28 -53 -75 -69 l-36 -13 35 -31 c22
-19 30 -33 23 -36 -9 -3 -8 -7 3 -15 10 -7 16 -7 18 0 2 5 18 -1 36 -14 23
-18 37 -22 53 -16 12 4 25 5 27 0 3 -4 18 -6 35 -3 20 3 35 -2 50 -17 33 -33
26 -58 -24 -93 -40 -29 -50 -48 -23 -48 6 0 41 -16 78 -34 l68 -35 38 20 c21
10 53 19 70 19 32 0 64 -21 64 -41 0 -17 -21 -52 -47 -81 l-25 -26 29 -5 c15
-3 48 -9 73 -13 25 -3 48 -11 51 -16 3 -5 29 8 58 27 64 44 110 54 135 30 20
-21 15 -56 -14 -97 -11 -15 -20 -29 -20 -31 0 -10 40 -15 46 -6 3 5 24 9 47 9
50 0 119 18 113 29 -10 15 70 82 100 84 27 2 29 0 32 -42 2 -23 -1 -56 -7 -72
-5 -16 -7 -29 -3 -29 29 0 159 62 171 82 78 123 129 129 141 17 l5 -49 78 51
c63 43 77 56 77 78 0 78 35 126 82 113 23 -6 27 -13 36 -61 l7 -40 68 55 67
55 -2 74 c-2 80 9 105 47 105 23 0 50 -24 69 -61 6 -12 15 -21 20 -21 5 0 24
35 43 78 l34 77 -16 48 c-9 26 -15 63 -13 81 4 48 46 51 99 8 45 -36 44 -37
57 68 8 69 7 76 -20 129 -15 31 -28 64 -28 74 0 40 47 42 118 5 41 -21 42 -21
35 19 -4 24 -2 35 7 35 9 0 9 4 2 13 -5 6 -13 32 -17 57 -5 36 -13 49 -34 61
-28 16 -28 19 -35 140 -4 68 -8 136 -9 152 -1 15 -6 27 -10 27 -5 0 -6 48 -2
108 7 106 7 107 -16 117 -18 7 -25 20 -27 45 -2 19 -9 42 -16 50 -7 8 -18 29
-25 46 -7 17 -54 71 -104 119 -51 49 -91 93 -89 99 2 6 0 8 -4 4 -4 -4 -19 1
-34 12 -21 15 -26 25 -22 50 2 16 -1 37 -8 45 -14 17 -15 17 23 33 35 15 35
38 -4 109 -46 84 -77 121 -110 128 -16 4 -61 24 -101 46 -68 37 -75 39 -137
35 -36 -3 -69 -5 -73 -6 -4 0 -8 -15 -10 -32 -2 -18 -7 -33 -13 -32 -5 0 -21
-5 -34 -12 -21 -11 -30 -10 -57 6 -17 11 -40 20 -51 20 -14 0 -22 9 -26 28 -4
17 -16 33 -32 40 -35 16 -38 16 -61 -14z m-11 -160 c26 -4 44 -10 42 -14 -3
-5 3 -6 13 -3 28 7 200 -45 262 -79 93 -52 172 -109 231 -167 63 -63 263 -360
290 -432 29 -75 71 -250 72 -301 1 -27 5 -48 10 -48 4 0 7 -8 7 -19 0 -14 -6
-17 -25 -13 -14 2 -25 6 -25 7 0 28 -39 193 -65 270 -94 286 -270 513 -480
615 -112 55 -168 64 -400 64 -323 -1 -420 -32 -627 -202 -36 -30 -69 -54 -73
-53 -3 1 -26 -22 -50 -51 -51 -61 -95 -145 -131 -250 -30 -88 -94 -343 -94
-375 0 -21 -4 -23 -61 -23 l-61 0 7 93 c4 50 11 99 15 107 5 8 17 54 29 102
16 68 31 102 73 165 29 43 75 112 101 153 34 53 67 89 113 124 100 76 368 232
421 245 26 7 80 24 118 38 151 54 190 60 288 47z m150 -155 c120 -18 292 -111
372 -200 175 -195 290 -435 330 -686 l7 -43 -40 0 -40 0 -16 98 c-50 287 -111
413 -277 566 -124 114 -260 168 -472 188 -179 16 -327 -2 -512 -64 -77 -26
-101 -39 -154 -84 -46 -40 -137 -170 -147 -211 -4 -12 -11 -23 -17 -23 -6 0
-8 -3 -5 -6 3 -3 -9 -47 -28 -98 -31 -88 -62 -204 -81 -306 l-9 -45 -47 -3
c-30 -2 -47 1 -47 8 0 6 11 59 24 118 53 235 132 431 204 505 46 47 210 174
275 211 26 16 54 25 63 22 8 -3 13 -2 10 3 -8 13 41 32 119 46 87 16 392 19
488 4z m-12 -118 c108 -25 184 -58 263 -115 122 -87 221 -215 275 -355 24 -63
81 -295 81 -331 0 -6 -16 -10 -35 -10 -28 0 -35 4 -39 23 -22 113 -32 153 -56
228 -47 143 -133 293 -206 360 -97 87 -270 140 -530 159 -103 8 -153 7 -194
-1 -30 -7 -67 -12 -82 -13 -16 -1 -28 -5 -28 -11 0 -5 -21 -23 -46 -39 -52
-33 -134 -112 -212 -204 -38 -44 -68 -95 -101 -174 -33 -74 -56 -115 -72 -125
-24 -14 -24 -14 -1 -8 20 6 22 4 17 -18 -4 -13 -9 -55 -13 -93 l-7 -69 -38 -3
c-43 -4 -43 -20 -1 145 36 141 111 345 133 363 3 3 7 10 8 17 5 26 90 137 130
170 64 53 206 101 378 127 69 10 292 -3 376 -23z m-116 -82 c174 -21 323 -78
393 -149 46 -46 117 -156 148 -228 58 -135 61 -144 84 -231 23 -92 25 -121 7
-121 -8 0 -17 28 -25 80 -21 130 -70 243 -145 330 -56 65 -172 160 -229 189
-31 16 -55 30 -53 32 2 2 -6 4 -18 5 -12 0 -51 6 -87 12 -36 6 -133 12 -215
13 -196 2 -202 0 -376 -166 -143 -135 -178 -186 -199 -282 -6 -29 -16 -53 -21
-53 -6 0 -7 -5 -4 -11 4 -6 4 -39 0 -75 l-7 -64 -58 0 -57 0 17 99 c17 95 45
175 59 167 3 -2 7 6 7 19 3 40 51 133 92 177 22 24 55 61 73 84 70 84 179 159
263 180 56 14 199 11 351 -7z m100 -112 c73 -17 145 -46 145 -58 0 -5 7 -9 15
-9 9 0 64 -48 124 -107 120 -121 166 -198 195 -330 25 -110 24 -113 -28 -113
-50 0 -45 -8 -71 115 -9 44 -26 95 -37 112 -11 18 -17 37 -13 43 4 6 3 9 -2 8
-4 -2 -33 24 -63 56 -100 107 -231 186 -363 220 -67 18 -186 21 -241 7 -57
-14 -175 -75 -216 -112 -19 -17 -54 -45 -78 -62 -63 -46 -92 -114 -126 -298
-3 -13 -5 -36 -5 -51 -1 -25 -5 -28 -36 -28 -19 0 -35 3 -35 8 0 20 21 142 31
182 27 103 53 141 180 260 146 137 176 161 197 153 9 -4 13 -2 9 4 -4 6 -1 14
5 17 23 11 352 -3 413 -17z m-100 -83 c141 -35 304 -140 379 -244 52 -72 73
-119 86 -190 6 -36 13 -73 15 -82 2 -15 -4 -18 -35 -18 l-38 0 -10 72 c-33
221 -235 391 -479 402 -177 8 -298 -54 -415 -212 -51 -69 -65 -103 -71 -182
-3 -36 -6 -66 -6 -67 -1 -2 -17 -3 -36 -3 -32 0 -35 3 -35 28 0 45 28 175 50
235 17 46 32 65 88 109 136 109 197 144 284 162 70 14 138 11 223 -10z m57
-115 c168 -56 280 -168 313 -314 9 -39 18 -78 21 -88 5 -16 1 -18 -26 -15 -30
3 -34 7 -50 61 -22 71 -51 116 -116 181 -69 67 -136 97 -237 103 -155 10 -292
-35 -354 -114 -38 -49 -52 -84 -61 -158 l-7 -60 -48 -3 -49 -3 7 67 c3 37 15
84 25 103 21 42 111 148 155 184 52 42 74 50 93 35 15 -12 16 -11 4 4 -12 15
-9 18 30 28 24 6 48 13 53 15 24 11 190 -6 247 -26z m-60 -95 c22 -4 35 -11
31 -17 -3 -6 -1 -7 6 -3 42 26 213 -131 250 -228 27 -73 27 -76 -8 -76 -26 0
-30 5 -40 46 -16 64 -71 146 -117 175 -29 18 -55 24 -99 26 -75 2 -213 -20
-251 -40 -52 -27 -88 -84 -100 -156 l-7 -41 -50 0 -50 0 7 48 c15 109 63 194
129 229 69 36 203 53 299 37z m95 -120 c47 -23 105 -105 128 -181 6 -21 3 -23
-34 -23 -36 0 -41 3 -47 28 -14 55 -52 99 -108 127 -48 23 -66 27 -120 23 -83
-5 -125 -35 -157 -113 -18 -44 -27 -55 -46 -55 -19 0 -23 5 -23 30 0 17 5 30
10 30 5 0 9 3 9 8 -7 45 44 105 103 120 71 19 80 20 166 21 59 1 94 -4 119
-15z m-81 -67 c41 -21 68 -47 93 -87 76 -126 -73 -292 -226 -251 -54 15 -109
64 -128 116 -17 42 -17 47 0 97 35 109 88 152 176 145 31 -3 69 -12 85 -20z"/>
<path d="M1580 2569 c0 -5 5 -7 10 -4 6 3 10 8 10 11 0 2 -4 4 -10 4 -5 0 -10
-5 -10 -11z"/>
<path d="M1700 2539 c0 -5 5 -7 10 -4 6 3 10 8 10 11 0 2 -4 4 -10 4 -5 0 -10
-5 -10 -11z"/>
<path d="M2458 1653 c7 -3 16 -2 19 1 4 3 -2 6 -13 5 -11 0 -14 -3 -6 -6z"/>
<path d="M1574 1586 c-17 -8 -34 -22 -39 -32 -17 -44 -23 -74 -14 -74 5 0 9 9
9 21 0 11 13 34 29 50 24 23 38 29 73 29 54 0 103 -29 122 -72 l15 -33 -6 30
c-3 17 -10 36 -16 43 -5 6 -6 12 -1 13 5 0 -11 9 -36 19 -53 22 -94 24 -136 6z"/>
<path d="M1610 1522 c-23 -7 -40 -33 -40 -61 1 -25 1 -25 14 5 8 18 18 34 23
37 19 12 64 -7 78 -32 8 -15 14 -20 15 -11 1 39 -50 74 -90 62z"/>
<path d="M2595 2650 c-3 -5 -1 -10 4 -10 6 0 11 5 11 10 0 6 -2 10 -4 10 -3 0
-8 -4 -11 -10z"/>
<path d="M2980 2451 c0 -5 7 -12 16 -15 14 -5 15 -4 4 9 -14 17 -20 19 -20 6z"/>
<path d="M476 2335 c4 -8 11 -15 16 -15 6 0 5 6 -2 15 -7 8 -14 15 -16 15 -2
0 -1 -7 2 -15z"/>
<path d="M2936 2282 c-3 -5 1 -9 9 -9 8 0 15 4 15 9 0 4 -4 8 -9 8 -6 0 -12
-4 -15 -8z"/>
<path d="M2860 2155 c-10 -12 -10 -15 3 -15 8 0 17 7 21 15 3 8 2 15 -3 15 -5
0 -14 -7 -21 -15z"/>
<path d="M2800 1810 c0 -5 5 -10 10 -10 6 0 10 5 10 10 0 6 -4 10 -10 10 -5 0
-10 -4 -10 -10z"/>
<path d="M2655 890 c-3 -6 1 -7 9 -4 18 7 21 14 7 14 -6 0 -13 -4 -16 -10z"/>
<path d="M87 839 c7 -7 15 -10 18 -7 3 3 -2 9 -12 12 -14 6 -15 5 -6 -5z"/>
<path d="M2645 630 c-3 -5 -1 -10 4 -10 6 0 11 5 11 10 0 6 -2 10 -4 10 -3 0
-8 -4 -11 -10z"/>
<path d="M111 520 c-9 -5 -4 -7 13 -7 29 0 32 2 13 10 -8 3 -20 2 -26 -3z"/>
<path d="M250 399 c0 -5 5 -7 10 -4 6 3 10 8 10 11 0 2 -4 4 -10 4 -5 0 -10
-5 -10 -11z"/>
<path d="M930 376 c0 -2 7 -6 15 -10 8 -3 15 -1 15 4 0 6 -7 10 -15 10 -8 0
-15 -2 -15 -4z"/>
<path d="M944 321 c4 -6 1 -11 -7 -11 -19 0 -19 -50 -1 -51 8 -1 23 -1 34 -1
40 0 50 2 50 12 0 5 -7 7 -15 4 -11 -5 -13 -2 -9 9 4 11 -5 21 -26 32 -18 9
-29 12 -26 6z"/>
<path d="M726 277 c3 -10 9 -15 12 -12 3 3 0 11 -7 18 -10 9 -11 8 -5 -6z"/>
<path d="M209 253 c-13 -16 -12 -17 4 -4 16 13 21 21 13 21 -2 0 -10 -8 -17
-17z"/>
<path d="M2070 216 c0 -2 7 -9 15 -16 9 -7 15 -8 15 -2 0 5 -7 12 -15 16 -8 3
-15 4 -15 2z"/>
<path d="M2611 194 c-16 -16 -19 -24 -10 -24 8 0 22 12 32 25 23 31 10 31 -22
-1z"/>
<path d="M2431 174 c0 -11 3 -14 6 -6 3 7 2 16 -1 19 -3 4 -6 -2 -5 -13z"/>
<path d="M245 30 c-3 -5 -1 -10 4 -10 6 0 11 5 11 10 0 6 -2 10 -4 10 -3 0 -8
-4 -11 -10z"/>
</g>
</svg>
